# xmcd CD Database Entry
#
# Track frame offsets:
# 150
# 21975
# 39240
# 66307
# 88624
# 114178
# 127605
# 147584
# 177649
#
# Disc length: 2809 seconds
#
# Revision: 4
# Processed by: cddbd v1.4b41PL1 Copyright (c) Steve Scherf et al.
# Submitted via: tcd 2.0b
#
DISCID=760af709
DTITLE=Marnie - Legitimo Polvo
DYEAR=1900
DGENRE=
TTITLE0=Floor of Soul
TTITLE1=Floor of Soul Dub
TTITLE2=Candy Bones
TTITLE3=Sweet Bing Cherries
TTITLE4=It's Your Time
TTITLE5=It's Your Dub
TTITLE6=Tierra Madre
TTITLE7=First and Last
TTITLE8=Fast
EXTD=Marnie - Legitimo Polvo
EXTT0=Floor of Soul
EXTT1=Floor of Soul Dub
EXTT2=Candy Bones
EXTT3=Sweet Bing Cherries
EXTT4=It's Your Time
EXTT5=It's Your Dub
EXTT6=Tierra Madre
EXTT7=First and Last
EXTT8=Fast
PLAYORDER=
